<svg xmlns="http://www.w3.org/2000/svg" width="602" height="66" viewBox="0 0 602 66" fill="none"><mask id="mask0_2_11963" style="mask-type:luminance" maskUnits="userSpaceOnUse" x="204" y="22" width="398" height="34"><path d="M602 22.186H204.5V55.186H602V22.186Z" fill="white"></path></mask><g mask="url(#mask0_2_11963)"><path d="M224.538 22.7115C224.873 22.68 225.359 22.6565 226.004 22.6485C226.649 22.6332 227.16 22.6255 227.537 22.6255C227.998 22.6255 228.467 22.6255 228.944 22.649C229.422 22.6645 229.766 22.688 229.975 22.712L236.592 54.6445C236.262 54.6855 235.929 54.7065 235.596 54.7075C235.135 54.723 234.683 54.731 234.222 54.731C233.844 54.731 233.442 54.731 233.007 54.7075C232.572 54.692 232.203 54.6685 231.918 54.6445L230.36 46.2945H214.243L209.183 54.6445C208.848 54.676 208.488 54.6995 208.094 54.7075C207.7 54.7232 207.273 54.731 206.812 54.731C206.393 54.731 205.967 54.731 205.531 54.7075C205.095 54.6915 204.75 54.668 204.5 54.6445L224.538 22.7115ZM229.782 43.4565L226.532 26.0465L215.918 43.4565H229.782Z" fill="#2E394C"></path><path d="M264.874 22.7115C265.204 22.6702 265.537 22.6492 265.871 22.6485C266.331 22.633 266.784 22.625 267.245 22.625C267.622 22.625 268.024 22.625 268.459 22.6485C268.895 22.664 269.263 22.6875 269.548 22.7115L274.918 51.318L292.275 22.7115C292.61 22.68 292.979 22.6565 293.398 22.6485C293.817 22.633 294.252 22.625 294.713 22.625C295.132 22.625 295.567 22.625 296.02 22.6485C296.48 22.664 296.832 22.6875 297.084 22.7115L276.92 54.6445C276.585 54.676 276.116 54.6995 275.512 54.7075C274.909 54.723 274.423 54.731 274.046 54.731C273.586 54.731 273.091 54.731 272.546 54.7075C272.002 54.692 271.633 54.6685 271.424 54.6445L264.865 22.7115H264.874Z" fill="#2E394C"></path><path d="M327.743 22.7115C328.036 22.68 328.388 22.6565 328.807 22.6485C329.226 22.633 329.595 22.625 329.93 22.625C330.39 22.625 330.784 22.625 331.119 22.6485C331.454 22.664 331.764 22.6875 332.057 22.7115L324.191 54.6445C323.856 54.676 323.513 54.6995 323.161 54.7075C322.811 54.723 322.398 54.731 321.946 54.731C321.527 54.731 321.134 54.731 320.757 54.7075C320.38 54.692 320.095 54.6685 319.886 54.6445L327.75 22.7115H327.743Z" fill="#2E394C"></path><path d="M374.562 22.7115C374.897 22.68 375.383 22.6565 376.028 22.6485C376.673 22.6328 377.184 22.625 377.561 22.625C378.022 22.625 378.491 22.625 378.969 22.6485C379.446 22.664 379.79 22.6875 379.999 22.7115L386.617 54.6445C386.286 54.6855 385.954 54.7065 385.62 54.7075C385.16 54.723 384.707 54.731 384.246 54.731C383.869 54.731 383.467 54.731 383.032 54.7075C382.596 54.692 382.228 54.6685 381.943 54.6445L380.385 46.2945H364.275L359.216 54.6445C358.881 54.676 358.52 54.6995 358.127 54.7075C357.733 54.7232 357.306 54.731 356.845 54.731C356.426 54.731 355.999 54.731 355.564 54.7075C355.128 54.692 354.785 54.6685 354.533 54.6445L374.571 22.7115H374.562ZM379.806 43.456L376.556 26.046L365.943 43.456H379.807H379.806Z" fill="#2E394C"></path><path d="M423.326 25.4654H411.841C411.85 24.5061 412.085 23.5624 412.528 22.7114H439.812C439.803 23.6707 439.568 24.6144 439.125 25.4654H427.64L420.461 54.6444C420.168 54.6759 419.824 54.6994 419.43 54.7074C419.037 54.7231 418.651 54.7309 418.274 54.7309C417.855 54.7309 417.453 54.7309 417.06 54.7074C416.666 54.6919 416.364 54.6684 416.155 54.6444L423.334 25.4654H423.326Z" fill="#2E394C"></path><path d="M469.333 22.7115C469.626 22.68 469.978 22.6565 470.397 22.6485C470.816 22.633 471.184 22.625 471.519 22.625C471.98 22.625 472.374 22.625 472.709 22.6485C473.044 22.664 473.354 22.6875 473.647 22.7115L465.781 54.6445C465.446 54.676 465.102 54.6995 464.75 54.7075C464.4 54.723 463.988 54.731 463.536 54.731C463.117 54.731 462.723 54.731 462.346 54.7075C461.969 54.692 461.684 54.6685 461.475 54.6445L469.341 22.7115H469.333Z" fill="#2E394C"></path><path d="M515.222 55.186C513.118 55.2228 511.021 54.9316 509.006 54.323C507.381 53.825 505.874 53.003 504.575 51.9065C503.412 50.8973 502.496 49.6361 501.894 48.219C501.282 46.7558 500.975 45.1834 500.99 43.5975C500.975 40.7475 501.528 37.9231 502.615 35.2885C503.658 32.7318 505.208 30.4126 507.172 28.4705C509.196 26.4864 511.593 24.9229 514.225 23.8705C517.147 22.7152 520.266 22.143 523.407 22.186C525.545 22.1463 527.675 22.4537 529.715 23.096C531.355 23.6172 532.873 24.4629 534.18 25.583C535.336 26.5927 536.244 27.8543 536.835 29.2705C537.424 30.7012 537.72 32.2351 537.706 33.782C537.728 36.681 537.176 39.5556 536.081 42.24C535.041 44.8005 533.478 47.1153 531.491 49.036C529.437 50.9931 527.017 52.5257 524.37 53.546C521.453 54.6698 518.348 55.2265 515.222 55.186ZM515.909 52.386C518.266 52.4082 520.599 51.9155 522.745 50.9425C526.956 49.0408 530.244 45.5524 531.895 41.237C532.78 38.9578 533.226 36.5319 533.21 34.087C533.223 32.8406 533.022 31.6012 532.615 30.423C532.232 29.3298 531.588 28.3467 530.738 27.559C529.799 26.709 528.692 26.0649 527.488 25.668C525.946 25.1746 524.332 24.9413 522.713 24.9775C520.307 24.9493 517.923 25.4334 515.718 26.3975C513.652 27.3068 511.794 28.6283 510.256 30.281C508.712 31.9647 507.514 33.9354 506.73 36.081C505.884 38.3846 505.461 40.8217 505.48 43.2755C505.48 46.0609 506.312 48.2734 507.976 49.913C509.641 51.5527 512.282 52.374 515.9 52.377L515.909 52.386Z" fill="#2E394C"></path><path d="M572.907 22.7115C573.2 22.68 573.594 22.6565 574.096 22.6485C574.599 22.633 575.009 22.625 575.346 22.625C575.723 22.625 576.092 22.625 576.469 22.6485C576.846 22.664 577.156 22.6875 577.407 22.7115L591.261 49.586L597.82 22.7115C598.143 22.6737 598.467 22.6527 598.792 22.6485C599.185 22.6332 599.572 22.6255 599.95 22.6255C600.285 22.6255 600.646 22.6255 601.039 22.649C601.433 22.6645 601.76 22.688 602.003 22.712L594.193 54.6445C593.839 54.6838 593.484 54.7048 593.129 54.7075C592.668 54.723 592.232 54.731 591.814 54.731C591.479 54.731 591.093 54.731 590.658 54.7075C590.222 54.692 589.879 54.6685 589.627 54.6445L575.772 27.9055L569.279 54.6445C568.944 54.676 568.617 54.6995 568.282 54.7075C567.947 54.723 567.553 54.731 567.093 54.731C566.632 54.731 566.23 54.731 565.878 54.7075C565.528 54.692 565.242 54.6685 565.032 54.6445L572.9 22.7115H572.907Z" fill="#2E394C"></path></g><path d="M509.006 54.3225C507.381 53.8246 505.874 53.0026 504.575 51.906C503.412 50.8973 502.495 49.636 501.894 48.2185C501.282 46.7554 500.974 45.1829 500.99 43.5969C500.975 40.7469 501.527 37.9226 502.615 35.2881C503.658 32.7314 505.208 30.4122 507.172 28.4705C509.196 26.4863 511.593 24.923 514.224 23.8706C517.146 22.7147 520.265 22.1416 523.406 22.1836C525.544 22.1438 527.674 22.4513 529.714 23.0945C531.355 23.615 532.873 24.4607 534.18 25.5811C535.335 26.5908 536.244 27.8524 536.834 29.2686C537.423 30.6993 537.72 32.2334 537.706 33.7805C537.728 36.6793 537.176 39.5538 536.081 42.238C535.04 44.798 533.477 47.1123 531.49 49.033C529.436 50.9903 527.017 52.5235 524.37 53.5449C521.452 54.6684 518.346 55.2249 515.22 55.1841C513.116 55.2215 511.02 54.9307 509.006 54.3225ZM515.716 26.3994C513.65 27.3085 511.791 28.63 510.253 30.283C508.709 31.9665 507.511 33.9373 506.727 36.083C505.882 38.3866 505.458 40.8238 505.477 43.2776C505.477 46.0629 506.31 48.2754 507.975 49.9151C509.64 51.5547 512.281 52.3762 515.898 52.3792L515.907 52.387C518.264 52.4089 520.597 51.9163 522.743 50.9431C526.954 49.0419 530.243 45.5532 531.893 41.2376C532.778 38.9583 533.224 36.5325 533.208 34.0877C533.221 32.8413 533.02 31.602 532.614 30.4236C532.23 29.3304 531.586 28.3472 530.737 27.5591C529.797 26.7094 528.69 26.0653 527.487 25.6685C525.945 25.1752 524.331 24.9419 522.712 24.978C520.306 24.9499 517.921 25.4344 515.716 26.3994ZM590.657 54.7075C590.222 54.6915 589.878 54.668 589.627 54.6445L575.771 27.905L569.279 54.6445C568.944 54.676 568.617 54.6995 568.281 54.7075C567.945 54.7155 567.552 54.731 567.092 54.731C566.631 54.731 566.229 54.731 565.878 54.7075C565.526 54.684 565.241 54.668 565.031 54.6445L572.898 22.7109H572.906C573.199 22.6794 573.592 22.6559 574.094 22.6484C574.597 22.6324 575.008 22.6245 575.344 22.6245C575.721 22.6245 576.09 22.6244 576.467 22.6484C576.844 22.6639 577.154 22.6874 577.405 22.7109L591.261 49.5835L597.82 22.7109C598.143 22.6731 598.467 22.6522 598.792 22.6484C599.186 22.6324 599.571 22.6245 599.948 22.6245C600.284 22.6245 600.643 22.6244 601.036 22.6484C601.43 22.6639 601.757 22.6874 602 22.7109L594.193 54.6445C593.839 54.6838 593.485 54.7048 593.13 54.7075C592.669 54.723 592.233 54.731 591.815 54.731C591.479 54.731 591.094 54.731 590.658 54.7075H590.657ZM462.346 54.7075C461.969 54.6915 461.684 54.668 461.474 54.6445L469.34 22.7109H469.332C469.624 22.6794 469.977 22.6559 470.396 22.6484C470.814 22.6324 471.184 22.6245 471.518 22.6245C471.979 22.6245 472.373 22.6244 472.708 22.6484C473.043 22.6639 473.352 22.6874 473.646 22.7109L465.779 54.6445C465.444 54.676 465.102 54.6995 464.75 54.7075C464.398 54.7155 463.987 54.731 463.534 54.731C463.116 54.731 462.723 54.731 462.346 54.7075ZM417.059 54.7075C416.666 54.6915 416.364 54.668 416.154 54.6445L423.334 25.4651H411.841C411.85 24.506 412.085 23.5623 412.528 22.7114H439.812C439.803 23.6706 439.568 24.6143 439.125 25.4651H427.64L420.461 54.6445C420.167 54.676 419.824 54.6995 419.43 54.7075C419.037 54.7155 418.651 54.731 418.274 54.731C417.855 54.731 417.454 54.731 417.059 54.7075ZM383.031 54.7075C382.596 54.6915 382.227 54.668 381.942 54.6445L380.384 46.2944H364.276L359.216 54.6445C358.881 54.676 358.521 54.6995 358.127 54.7075C357.734 54.7155 357.306 54.731 356.845 54.731C356.426 54.731 355.999 54.731 355.564 54.7075C355.128 54.684 354.784 54.668 354.533 54.6445L374.571 22.7109H374.563C374.898 22.6794 375.384 22.6559 376.029 22.6484C376.674 22.6324 377.185 22.6245 377.561 22.6245C378.022 22.6245 378.492 22.6244 378.969 22.6484C379.447 22.6639 379.79 22.6874 380 22.7109L386.617 54.6445C386.286 54.6855 385.954 54.7065 385.621 54.7075C385.16 54.723 384.708 54.731 384.247 54.731C383.87 54.731 383.468 54.731 383.033 54.7075H383.031ZM365.941 43.4575H379.806L376.556 26.0471L365.941 43.4575ZM320.756 54.7075C320.379 54.6915 320.094 54.668 319.884 54.6445L327.75 22.7109H327.742C328.036 22.6794 328.388 22.6559 328.806 22.6484C329.225 22.6324 329.593 22.6245 329.929 22.6245C330.39 22.6245 330.784 22.6244 331.118 22.6484C331.453 22.6639 331.763 22.6874 332.056 22.7109L324.19 54.6445C323.855 54.676 323.511 54.6995 323.159 54.7075C322.807 54.7155 322.398 54.731 321.945 54.731C321.528 54.731 321.133 54.731 320.757 54.7075H320.756ZM272.546 54.7075C272.001 54.6915 271.633 54.668 271.423 54.6445L264.864 22.7109H264.872C265.203 22.6696 265.536 22.6487 265.87 22.6484C266.33 22.6324 266.783 22.6245 267.243 22.6245C267.62 22.6245 268.021 22.6244 268.457 22.6484C268.893 22.6639 269.261 22.6874 269.547 22.7109L274.917 51.3181L292.274 22.7109C292.609 22.6794 292.978 22.6559 293.397 22.6484C293.815 22.6324 294.251 22.6245 294.711 22.6245C295.13 22.6245 295.566 22.6244 296.017 22.6484C296.478 22.6639 296.831 22.6874 297.082 22.7109L276.918 54.6445C276.583 54.676 276.114 54.6995 275.51 54.7075C274.907 54.7155 274.422 54.731 274.045 54.731C273.586 54.731 273.092 54.731 272.547 54.7075H272.546ZM233.006 54.7075C232.571 54.6915 232.201 54.668 231.917 54.6445L230.358 46.2944H214.242L209.183 54.6445C208.848 54.676 208.487 54.6995 208.094 54.7075C207.7 54.7155 207.272 54.731 206.811 54.731C206.393 54.731 205.966 54.731 205.53 54.7075C205.095 54.684 204.751 54.668 204.5 54.6445L224.538 22.7109C224.873 22.6794 225.358 22.6559 226.003 22.6484C226.648 22.6324 227.159 22.6245 227.536 22.6245C227.997 22.6245 228.467 22.6244 228.944 22.6484C229.421 22.6639 229.765 22.6874 229.974 22.7109L236.592 54.6445C236.262 54.6855 235.928 54.7065 235.595 54.7075C235.135 54.723 234.682 54.731 234.221 54.731C233.845 54.731 233.443 54.731 233.008 54.7075H233.006ZM215.916 43.4575H229.78L226.53 26.0471L215.916 43.4575Z" fill="white"></path><mask id="mask1_2_11963" style="mask-type:luminance" maskUnits="userSpaceOnUse" x="0" y="0" width="192" height="66"><path d="M191.5 0.186035H0V65.186H191.5V0.186035Z" fill="white"></path></mask><g mask="url(#mask1_2_11963)"><path d="M189.977 4.47788C175.323 22.5465 160.642 40.5965 145.936 58.6279C139.829 66.1139 132.482 66.1534 126.371 58.7499C121.405 52.7374 116.53 46.6539 111.627 40.5944C111.506 40.4444 110.669 39.5029 109.922 38.5944H118.188C122.981 38.5867 127.72 37.5784 132.101 35.6339C136.482 33.6895 140.408 30.8517 143.629 27.3024L165.505 1.45588C165.689 1.44388 165.876 1.43988 166.072 1.44388C174.537 1.57788 183.001 1.49888 191.472 1.49888C191.678 3.03938 190.618 3.68988 189.977 4.47788Z" fill="#B09174"></path><path d="M127.8 24.6192C124.792 26.0358 121.51 26.7716 118.185 26.7742H100.9C100.75 26.6207 100.603 26.4667 100.458 26.3092C93.3497 18.6817 86.9997 10.3447 79.6362 1.50321C89.6612 1.50321 98.5952 1.53471 107.529 1.47571C108.995 1.46371 109.679 2.34621 110.446 3.28821C116.221 10.4077 121.961 17.5547 127.802 24.6192" fill="#B09174"></path><path d="M36.55 38.7045C31.917 46.23 27.706 53.381 23.1625 60.3115C22.146 61.8201 21.3396 63.4599 20.7655 65.186H0.0120016C0.0120016 58.9255 0.000501644 52.661 0.0470016 46.4C0.0785016 42.0615 2.9795 38.836 7.265 38.7595C16.8405 38.586 26.4195 38.7045 36.554 38.7045H36.55Z" fill="#B09174"></path><path d="M32.1544 0.246442C41.4834 0.825442 50.8494 -0.849058 60.0084 1.41244C72.0429 4.38344 80.1949 11.7549 83.8039 23.9099C84.4139 25.9704 84.3864 26.9829 81.6299 26.9199C72.6529 26.7269 63.6679 26.7939 54.6829 26.9004C52.7944 26.9239 51.6569 26.2974 50.5329 24.8159C44.9144 17.4204 39.1749 10.1159 33.4974 2.76594C32.9794 2.09794 32.2169 1.54644 32.1494 0.242442L32.1544 0.246442Z" fill="#B09174"></path><path d="M31.4355 65.1614C37.7105 57.2419 43.72 49.9529 49.358 42.3859C51.489 39.5254 53.708 38.4734 57.2325 38.5954C65.49 38.8789 73.7675 38.7729 82.0325 38.6309C84.2415 38.5914 84.445 39.2614 83.952 41.1524C82.3175 47.4444 79.1545 52.7754 74.095 56.7944C67.4405 62.0819 59.992 65.3244 51.3045 65.1789C44.905 65.0749 38.5045 65.1614 31.4355 65.1614Z" fill="#B09174"></path><path d="M36.4793 26.8608H25.5158C19.5338 26.8568 13.5518 26.9083 7.57326 26.8213C3.20626 26.7583 0.156762 23.8663 0.062762 19.5638C-0.066238 13.7168 0.049762 7.86581 0.00426203 2.01531C-0.00773797 0.785805 0.340262 0.297305 1.63426 0.305305C7.87793 0.356305 14.1234 0.356305 20.3708 0.305305C20.802 0.264175 21.2353 0.358592 21.6102 0.575397C21.9852 0.792201 22.2833 1.12059 22.4628 1.51481C27.0178 9.7968 31.6078 18.0548 36.4838 26.8608H36.4793Z" fill="#B09174"></path></g></svg>